<svg xmlns="http://www.w3.org/2000/svg" viewBox="0 0 512 512" style="enable-background:new 0 0 512 512"
     xml:space="preserve"><path style="fill:#e4eaf8" d="M485.083 72.734H26.917c-10.121 0-18.327 8.205-18.327 18.327v366.532c0 10.121 8.206 18.327 18.327 18.327h458.166c10.121 0 18.327-8.206 18.327-18.327V91.06c-.001-10.122-8.206-18.326-18.327-18.326z"/>
    <path style="fill:#ff507d"
          d="M503.409 146.04H8.591V91.06c0-10.122 8.205-18.327 18.327-18.327h458.166c10.122 0 18.327 8.205 18.327 18.327v54.98z"/>
    <path style="fill:#d23c69"
          d="M100.224 136.877H63.57c-15.182 0-27.49-12.307-27.49-27.49V72.734h91.633v36.653c.001 15.182-12.307 27.49-27.489 27.49zM448.43 136.877h-36.653c-15.182 0-27.49-12.307-27.49-27.49V72.734h91.633v36.653c-.001 15.182-12.308 27.49-27.49 27.49z"/>
    <path style="fill:#afb9d2"
          d="M91.06 109.387H72.734a9.164 9.164 0 0 1-9.163-9.163v-54.98a9.164 9.164 0 0 1 9.163-9.163H91.06a9.164 9.164 0 0 1 9.163 9.163v54.98c.001 5.06-4.102 9.163-9.163 9.163zM439.266 109.387H420.94a9.164 9.164 0 0 1-9.163-9.163v-54.98a9.164 9.164 0 0 1 9.163-9.163h18.327a9.164 9.164 0 0 1 9.163 9.163v54.98a9.164 9.164 0 0 1-9.164 9.163z"/>
    <path style="fill:#c7cfe2"
          d="M91.06 81.897H72.734a9.164 9.164 0 0 1-9.163-9.163v-27.49a9.164 9.164 0 0 1 9.163-9.163H91.06a9.164 9.164 0 0 1 9.163 9.163v27.49c.001 5.06-4.102 9.163-9.163 9.163zM439.266 81.897H420.94a9.164 9.164 0 0 1-9.163-9.163v-27.49a9.164 9.164 0 0 1 9.163-9.163h18.327a9.164 9.164 0 0 1 9.163 9.163v27.49a9.164 9.164 0 0 1-9.164 9.163z"/>
    <path style="fill:#ff6991"
          d="M485.083 475.919h-109.96V146.04h128.286v311.553c0 10.122-8.204 18.326-18.326 18.326z"/>
    <path d="M485.083 64.143H457.02V45.244c0-9.79-7.964-17.754-17.754-17.754H420.94c-9.79 0-17.754 7.964-17.754 17.754v18.899H108.814V45.244c0-9.79-7.964-17.754-17.754-17.754H72.734c-9.79 0-17.754 7.964-17.754 17.754v18.899H26.917C12.075 64.143 0 76.218 0 91.06v366.532c0 14.842 12.075 26.917 26.917 26.917h458.166c14.842 0 26.917-12.075 26.917-26.917V91.06c0-14.842-12.075-26.917-26.917-26.917zm-237.674 90.488v65.289h-101.94v-65.289h101.94zm119.123 0v147.758H264.591V237.1h73.879a8.591 8.591 0 0 0 0-17.182h-73.879v-65.289h101.941zm128.287 0v65.289H383.714v-65.289h111.105zm-111.105 82.47h111.105v65.289H383.714v-65.289zm-238.245 0H247.41v65.289H145.469v-65.289zm-17.181 65.288H17.181V237.1h111.106v65.289zm0-82.47H17.181V154.63h111.106v65.289zM17.181 319.57h111.106v65.289H17.181V319.57zm128.288 0H247.41v65.289h-73.88a8.591 8.591 0 0 0 0 17.182h73.879v65.289h-101.94V319.57zm119.122 82.47h101.942v65.289H264.591V402.04zm0-17.181V319.57h101.942v65.289H264.591zm119.123-65.289h111.105v65.289H383.714V319.57zm36.653-274.326c0-.316.257-.573.573-.573h18.327c.316 0 .573.257.573.573v54.98a.574.574 0 0 1-.573.573H420.94a.574.574 0 0 1-.573-.573v-54.98zm-348.206 0c0-.316.257-.573.573-.573H91.06c.316 0 .573.257.573.573v54.98a.574.574 0 0 1-.573.573H72.734a.574.574 0 0 1-.573-.573v-54.98zm-45.244 36.08H54.98v18.899c0 9.79 7.964 17.754 17.754 17.754H91.06c9.79 0 17.754-7.964 17.754-17.754V81.324h294.371v18.899c0 9.79 7.964 17.754 17.754 17.754h18.327c9.79 0 17.754-7.964 17.754-17.754V81.324h28.063c5.369 0 9.736 4.367 9.736 9.736v46.389H17.181V91.06c0-5.368 4.368-9.736 9.736-9.736zm-9.736 376.269V402.04h111.106v65.289H26.917c-5.368 0-9.736-4.368-9.736-9.736zm467.902 9.736H383.714V402.04h111.105v55.553c0 5.368-4.368 9.736-9.736 9.736z"/></svg>