<?xml version="1.0" encoding="iso-8859-1"?>
<!-- Generator: Adobe Illustrator 19.0.0, SVG Export Plug-In . SVG Version: 6.00 Build 0)  -->
<svg xmlns="http://www.w3.org/2000/svg" version="1.1" id="Layer_1" x="0px" y="0px" viewBox="0 0 512 512" style="enable-background:new 0 0 512 512;" xml:space="preserve">
<circle style="fill:#AFB9D2;" cx="256" cy="256" r="247.409"/>
<path style="fill:#959CB5;" d="M81.897,256c0-124.183,91.501-226.975,210.756-244.689c-11.963-1.777-24.197-2.72-36.653-2.72  C119.36,8.591,8.591,119.36,8.591,256S119.36,503.409,256,503.409c12.456,0,24.691-0.944,36.653-2.72  C173.398,482.975,81.897,380.183,81.897,256z"/>
<circle style="fill:#707487;" cx="256" cy="256" r="219.919"/>
<circle style="fill:#5B5D6E;" cx="256" cy="256" r="54.98"/>
<path style="fill:#B4E66E;" d="M256,100.224V63.57c-49.247,0-98.494,18.787-136.068,56.361c-75.148,75.148-75.148,196.988,0,272.137  l25.917-25.917v-0.001c-60.834-60.834-60.834-159.466,0-220.3C176.267,115.433,216.133,100.224,256,100.224z"/>
<path style="fill:#FF507D;" d="M256,100.224V63.57c49.247,0,98.494,18.787,136.068,56.361c75.148,75.148,75.148,196.988,0,272.137  l-25.917-25.917v-0.001c60.834-60.834,60.834-159.466,0-220.301C335.733,115.433,295.867,100.224,256,100.224z"/>
<path style="fill:#FFDC64;" d="M366.151,145.849l25.917-25.917c-75.148-75.148-196.987-75.148-272.137,0l25.917,25.917  C206.684,85.015,305.316,85.015,366.151,145.849z"/>
<path style="fill:#FFFFFF;" d="M236.993,236.131l38.876,38.876L394.29,121.53c1.951-2.528-1.292-5.771-3.82-3.82L236.993,236.131z"/>
<circle style="fill:#D5DCED;" cx="256" cy="256" r="27.49"/>
<path d="M437.02,74.981C388.668,26.629,324.38,0,256,0S123.332,26.629,74.98,74.981C26.629,123.332,0,187.62,0,256  s26.629,132.668,74.98,181.019C123.332,485.371,187.62,512,256,512s132.668-26.629,181.02-74.981  C485.371,388.668,512,324.38,512,256S485.371,123.332,437.02,74.981z M256,494.819C124.315,494.819,17.181,387.685,17.181,256  S124.315,17.181,256,17.181S494.819,124.315,494.819,256S387.685,494.819,256,494.819z"/>
<path d="M400.318,123.712c2.57-3.42,2.232-8.21-0.793-11.235s-7.816-3.364-11.235-0.793L237.295,225.159  c-10.41,6.335-17.376,17.789-17.376,30.841c0,19.895,16.186,36.081,36.081,36.081c13.054,0,24.511-6.969,30.847-17.382  L400.318,123.712z M289.486,242.59c-3.666-9.122-10.952-16.408-20.076-20.075l80.792-60.717L289.486,242.59z M256,274.899  c-10.421,0-18.899-8.478-18.899-18.899s8.478-18.899,18.899-18.899s18.899,8.478,18.899,18.899S266.421,274.899,256,274.899z"/>
<path d="M157.021,147.057c22.679-20.652,51.103-33.382,82.196-36.814c30.186-3.331,61.295,2.705,87.601,16.998  c4.17,2.266,9.384,0.722,11.649-3.448c2.264-4.169,0.72-9.384-3.448-11.65c-29.36-15.95-64.055-22.69-97.688-18.977  c-34.727,3.833-66.498,18.073-91.879,41.187c-33.567,30.568-52.639,72.391-53.7,117.768c-1.063,45.418,15.991,88.073,48.02,120.104  c1.678,1.678,3.876,2.516,6.075,2.516s4.397-0.838,6.074-2.516c3.355-3.355,3.355-8.793,0-12.149  c-28.675-28.677-43.945-66.874-42.993-107.552C109.88,211.887,126.959,174.432,157.021,147.057z"/>
<path d="M78.74,305.06c-8.465-30.777-8.72-64.071-0.739-96.281c3.662-14.778,9.404-29,17.067-42.269  c26.536-45.949,68.72-77.697,118.781-89.397c49.512-11.573,102.016-2.143,144.051,25.873c3.948,2.63,9.281,1.563,11.912-2.385  c2.631-3.947,1.565-9.281-2.384-11.912c-45.97-30.638-103.372-40.954-157.49-28.305c-54.734,12.792-100.812,47.43-129.748,97.535  c-8.469,14.665-14.816,30.386-18.865,46.729c-17.527,70.737,2.111,143.07,52.532,193.492c0.653,0.653,1.407,1.196,2.232,1.609  c1.228,0.614,2.541,0.907,3.837,0.907c2.794,0,5.514-1.364,7.155-3.827c2.357-3.535,1.748-8.183-1.24-11.005  C103.36,363.287,87.076,335.365,78.74,305.06z"/>
<path d="M455.048,227.363c-4.062-29.517-15.034-58.178-31.731-82.884c-2.656-3.931-7.995-4.963-11.928-2.308  c-3.931,2.656-4.963,7.997-2.307,11.928c15.231,22.537,25.24,48.681,28.945,75.605c8.014,58.242-10.952,115.207-52.034,156.287  c-3.355,3.355-3.355,8.794,0,12.148c1.677,1.678,3.876,2.516,6.074,2.516s4.397-0.838,6.074-2.516  C443.059,353.225,463.8,290.979,455.048,227.363z"/>
<path d="M399.903,176.856c-2.284-4.159-7.505-5.678-11.666-3.394c-4.158,2.284-5.678,7.507-3.394,11.665  c15.035,27.373,21.027,59.587,16.874,90.708c-4.293,32.16-18.687,61.287-41.631,84.231c-3.355,3.355-3.355,8.814,0,12.169  c1.677,1.678,3.876,2.516,6.074,2.516s4.397-0.838,6.074-2.516c0.121-0.121,0.238-0.246,0.352-0.372  c25.428-25.581,41.387-57.989,46.16-93.756C423.383,243.379,416.69,207.421,399.903,176.856z"/>
<g>
</g>
<g>
</g>
<g>
</g>
<g>
</g>
<g>
</g>
<g>
</g>
<g>
</g>
<g>
</g>
<g>
</g>
<g>
</g>
<g>
</g>
<g>
</g>
<g>
</g>
<g>
</g>
<g>
</g>
</svg>
