<?xml version="1.0" standalone="no"?>
<svg version="1.0" xmlns="http://www.w3.org/2000/svg"
 width="512.000000pt" height="512.000000pt" viewBox="0 0 512.000000 512.000000"
 preserveAspectRatio="xMidYMid meet">

<g transform="translate(0.000000,512.000000) scale(0.100000,-0.100000)"
fill="#000000" stroke="none">
<path d="M2365 5114 c-379 -39 -661 -120 -973 -278 -778 -397 -1299 -1170
-1382 -2051 -43 -464 47 -935 261 -1364 133 -267 280 -471 490 -678 407 -402
897 -641 1484 -725 118 -17 512 -17 630 0 486 69 926 256 1290 549 340 273
618 652 780 1065 121 311 170 577 170 928 0 351 -49 617 -170 928 -338 863
-1095 1464 -2025 1607 -101 15 -468 28 -555 19z m375 -515 c813 -74 1503 -619
1761 -1391 243 -726 62 -1517 -475 -2077 -233 -242 -563 -441 -889 -535 -502
-145 -1015 -100 -1485 130 -830 407 -1285 1340 -1097 2246 149 721 670 1304
1370 1533 271 89 538 120 815 94z"/>
<path d="M2479 3827 c-87 -33 -151 -105 -169 -191 -7 -36 -10 -229 -8 -593 l3
-539 30 -60 c94 -184 356 -184 450 0 l30 60 0 570 c0 625 2 601 -60 674 -64
76 -189 112 -276 79z"/>
<path d="M2460 1770 c-195 -91 -209 -341 -25 -455 43 -27 57 -30 124 -30 86 0
134 20 187 77 52 54 68 95 68 173 1 78 -20 130 -73 182 -69 69 -195 93 -281
53z"/>
</g>
</svg>
