<svg xmlns="http://www.w3.org/2000/svg" viewBox="0 0 512 512">
    <path style="fill:#ccc" d="M452.491 256.702v162.513H244.22v-232.43l64.414 59.898 143.857 10.019z"/>
    <path style="fill:#53737f" d="M331.671 303h64.156v64.156h-64.156z"/>
    <path d="M171.071 116.543v-.119l-.061.059-.061-.059v.119L76.744 208.75v210.465h188.532V208.75z"
          style="fill:#f2f2f2"/>
    <path style="fill:#ccc"
          d="m171.071 116.424-.061.059-.061-.059v.119L76.744 208.75v49.383l94.205-92.015 94.327 92.134V208.75l-94.205-92.207v-.119z"/>
    <path d="M204.45 419.215h-67v-91.444a33.5 33.5 0 1 1 67 0z" style="fill:#53737f"/>
    <path style="fill:#d85656"
          d="M318.324 240.038 171.071 92.785 23.575 240.038l17.434 17.434 129.94-129.939 132.27 134.972 15.105-22.467z"/>
    <path style="fill:#ff7b69" d="M171.071 92.785h170.111l147.253 147.253H318.324L171.071 92.785z"/>
    <path style="fill:#d85656" d="M303.219 262.505h176.429l8.787-22.467H318.324l-15.105 22.467z"/>
    <path d="M289.318 419.214a5.821 5.821 0 0 0 5.82 5.821h157.353a5.822 5.822 0 0 0 5.821-5.821v-130.5c-.192-7.636-11.431-7.713-11.641 0v124.68H295.138a5.82 5.82 0 0 0-5.82 5.82z"
          style="fill:#333"/>
    <path d="M395.827 372.976a5.82 5.82 0 0 0 5.82-5.82V303a5.821 5.821 0 0 0-5.82-5.821h-64.156A5.821 5.821 0 0 0 325.85 303v64.156a5.821 5.821 0 0 0 5.821 5.82zm-58.336-64.156h52.516v52.516h-52.516z"
          style="fill:#333"/>
    <path d="M494.078 241.454a5.851 5.851 0 0 0-1.429-5.416c.043-.078-147.336-147.283-147.351-147.367a5.821 5.821 0 0 0-4.116-1.706H171.071a6 6 0 0 0-4.112 1.7L19.462 235.919a5.859 5.859 0 0 0 0 8.234l17.434 17.434a5.819 5.819 0 0 0 8.232 0l25.8-25.8v183.427a5.821 5.821 0 0 0 5.82 5.821c55.9-.011 132.636.007 188.532 0a5.82 5.82 0 0 0 5.821-5.82V262.906a5.821 5.821 0 0 0-11.641 0v150.488h-49.189v-85.623a39.322 39.322 0 1 0-78.643 0v85.623H82.564V224.148l88.344-88.343 128.154 130.774a5.916 5.916 0 0 0 4.157 1.746h176.429a5.82 5.82 0 0 0 5.42-3.7l8.787-22.467a5.8 5.8 0 0 0 .223-.704zm-350.81 86.317c1.3-36.638 54.066-36.628 55.362 0v85.622h-55.362zm195.5-229.165 135.615 135.612H320.734L185.122 98.606zm-36.4 154.723-127.262-129.87a5.819 5.819 0 0 0-8.272-.042L41.009 249.24l-9.2-9.2 139.258-139.027 139.754 139.753zm173.3 3.356H314.146l7.278-10.826h158.485z"
          style="fill:#333"/>
</svg>