<svg version="1.0" xmlns="http://www.w3.org/2000/svg" width="100" height="100" xml:space="preserve"><path fill="#263238" d="M53.333 30c0 1.833-1.5 3.333-3.333 3.333A3.344 3.344 0 0 1 46.667 30V13.333C46.667 11.5 48.167 10 50 10c1.833 0 3.333 1.5 3.333 3.333V30zM53.333 86.667c0 1.832-1.5 3.333-3.333 3.333a3.344 3.344 0 0 1-3.333-3.333V70c0-1.833 1.5-3.333 3.333-3.333 1.833 0 3.333 1.5 3.333 3.333v16.667zM30 46.667c1.833 0 3.333 1.5 3.333 3.333 0 1.833-1.5 3.333-3.333 3.333H13.333A3.344 3.344 0 0 1 10 50a3.344 3.344 0 0 1 3.333-3.333H30zM86.667 46.667c1.832 0 3.333 1.5 3.333 3.333a3.344 3.344 0 0 1-3.333 3.333H70A3.343 3.343 0 0 1 66.667 50c0-1.833 1.5-3.333 3.333-3.333h16.667z"/><path fill="#8BC34A" d="M33.503 61.784a3.343 3.343 0 0 1 4.713 0 3.343 3.343 0 0 1 0 4.713L26.434 78.284a3.345 3.345 0 0 1-4.715 0 3.344 3.344 0 0 1 0-4.714l11.784-11.786zM73.57 21.715a3.346 3.346 0 0 1 4.714 0 3.345 3.345 0 0 1 0 4.715L66.501 38.216a3.346 3.346 0 0 1-4.714 0 3.343 3.343 0 0 1 0-4.713L73.57 21.715zM61.784 66.497a3.343 3.343 0 0 1 0-4.713 3.343 3.343 0 0 1 4.713 0L78.284 73.57a3.344 3.344 0 0 1 0 4.714 3.344 3.344 0 0 1-4.714 0L61.784 66.497zM21.716 26.43a3.345 3.345 0 0 1 0-4.715 3.346 3.346 0 0 1 4.714 0L38.216 33.5a3.343 3.343 0 0 1 0 4.713 3.346 3.346 0 0 1-4.713 0L21.716 26.43z"/></svg>