<?xml version="1.0" standalone="no"?>
<svg version="1.0" xmlns="http://www.w3.org/2000/svg"
 width="512.000000pt" height="512.000000pt" viewBox="0 0 512.000000 512.000000"
 preserveAspectRatio="xMidYMid meet">

<g transform="translate(0.000000,512.000000) scale(0.100000,-0.100000)"
fill="#f25e2e" stroke="none">
<path d="M342 5110 c-168 -25 -307 -168 -333 -343 -11 -82 -11 -4332 0 -4414
26 -179 164 -318 342 -343 84 -12 4332 -13 4416 -1 179 26 318 164 343 342 13
86 13 4332 0 4418 -25 178 -164 316 -343 342 -76 11 -4349 10 -4425 -1z m2538
-1216 c137 -40 230 -148 280 -326 26 -89 37 -304 22 -423 -6 -44 -10 -81 -9
-81 1 -1 38 43 82 99 240 302 529 554 717 627 102 39 163 46 235 25 103 -30
155 -88 168 -191 14 -100 -19 -171 -214 -462 -242 -363 -373 -592 -589 -1033
-66 -134 -139 -272 -161 -307 -128 -196 -288 -289 -481 -280 -77 4 -98 9 -163
41 -212 105 -329 362 -331 729 -1 80 -2 146 -2 145 -20 -27 -147 -278 -248
-494 -173 -364 -236 -472 -346 -583 -124 -125 -224 -170 -380 -170 -268 0
-461 178 -588 541 -147 421 -174 1171 -56 1599 60 216 152 348 292 417 74 37
79 38 186 38 101 0 117 -3 172 -28 117 -54 188 -156 221 -314 17 -87 20 -360
5 -498 -5 -44 -9 -81 -8 -82 1 0 36 54 78 122 98 155 217 321 323 450 93 113
267 285 335 332 159 108 325 147 460 107z"/>
</g>
</svg>
