<svg xmlns="http://www.w3.org/2000/svg" viewBox="0 0 64 64"><defs><style>.cls-1{fill:#5b97c4;}.cls-2{fill:#8cbce7;}.cls-3{fill:silver;}.cls-4{fill:#dedef2;}.cls-5{fill:#8d8d8d;}.cls-6{fill:#ffb248;}.cls-7{fill:#f79341;}.cls-8{fill:#bce2ff;}.cls-9{fill:#2b2b4c;}</style></defs><title>Profile Information</title><g id="Profile_Information"><path class="cls-1" d="M53,13.08V54.92A4.08,4.08,0,0,1,48.92,59H32V13h4.54A3.46,3.46,0,0,0,40,9.54V9h8.92A4.08,4.08,0,0,1,53,13.08Z"/><path class="cls-2" d="M11,13.08V54.92A4.08,4.08,0,0,0,15.08,59H32V13H27.46A3.46,3.46,0,0,1,24,9.54V9H15.08A4.08,4.08,0,0,0,11,13.08Z"/><rect class="cls-3" x="17" y="13" width="30" height="41" rx="2" ry="2"/><path class="cls-4" d="M47,15v8A28,28,0,0,1,19,51a2,2,0,0,1-2-2V15a2,2,0,0,1,2-2H45A2,2,0,0,1,47,15Z"/><path class="cls-5" d="M40,8.46V9.54A3.46,3.46,0,0,1,36.54,13H27.46A3.46,3.46,0,0,1,24,10a3.11,3.11,0,0,1,0-.43V8.46A3.46,3.46,0,0,1,27.46,5h9.08A3.11,3.11,0,0,1,37,5,3.46,3.46,0,0,1,40,8.46Z"/><path class="cls-3" d="M37,5.46V6.54A3.46,3.46,0,0,1,33.54,10H24.46A3.11,3.11,0,0,1,24,10a3.11,3.11,0,0,1,0-.43V8.46A3.46,3.46,0,0,1,27.46,5h9.08A3.11,3.11,0,0,1,37,5,3.11,3.11,0,0,1,37,5.46Z"/><path class="cls-6" d="M41,19.56v8.58A12.34,12.34,0,0,1,32,40a12.34,12.34,0,0,1-9-11.86V19.56L32,17Z"/><path class="cls-7" d="M32,17l9,2.56v8.58A12.34,12.34,0,0,1,32,40Z"/><path class="cls-2" d="M36,26a4,4,0,0,1-8,0,1.94,1.94,0,0,1,0-.34A4,4,0,0,1,36,26Z"/><path class="cls-8" d="M35,23.34a4,4,0,0,1-7,2.32,4,4,0,0,1,7-2.32Z"/><path class="cls-2" d="M38.76,35.21A12.37,12.37,0,0,1,32,40a12.29,12.29,0,0,1-6.53-4.49,3,3,0,0,1-.23-.3A7,7,0,0,1,35.54,31,6.81,6.81,0,0,1,37,32.05,6.91,6.91,0,0,1,38.76,35.21Z"/><path class="cls-8" d="M36.26,32.71A12.37,12.37,0,0,1,29.5,37.5a12.35,12.35,0,0,1-4-2,3,3,0,0,1-.23-.3A7,7,0,0,1,35.54,31,6.72,6.72,0,0,1,36.26,32.71Z"/><path class="cls-9" d="M48.92,60H15.08A5.09,5.09,0,0,1,10,54.92V19a1,1,0,0,1,2,0V54.92A3.08,3.08,0,0,0,15.08,58H48.92A3.08,3.08,0,0,0,52,54.92V13.08A3.08,3.08,0,0,0,48.92,10H41a4.48,4.48,0,0,1-4.44,4H27.46A4.48,4.48,0,0,1,23,10H15.08A3.08,3.08,0,0,0,12,13.08V15a1,1,0,0,1-2,0V13.08A5.09,5.09,0,0,1,15.08,8H24a1,1,0,0,1,1,1v.54A2.46,2.46,0,0,0,27.46,12h9.08A2.46,2.46,0,0,0,39,9.54V9a1,1,0,0,1,1-1h8.92A5.09,5.09,0,0,1,54,13.08V54.92A5.09,5.09,0,0,1,48.92,60Z"/><path class="cls-9" d="M45,55H19a3,3,0,0,1-3-3V15a3,3,0,0,1,3-3H45a3,3,0,0,1,3,3V46a1,1,0,0,1-2,0V15a1,1,0,0,0-1-1H19a1,1,0,0,0-1,1V52a1,1,0,0,0,1,1H45a1,1,0,0,0,1-1V50a1,1,0,0,1,2,0v2A3,3,0,0,1,45,55Z"/><path class="cls-9" d="M36.54,14H27.46A4.46,4.46,0,0,1,23,9.54V8.46A4.46,4.46,0,0,1,27.46,4H33a1,1,0,0,1,0,2H27.46A2.46,2.46,0,0,0,25,8.46V9.54A2.46,2.46,0,0,0,27.46,12h9.08A2.46,2.46,0,0,0,39,9.54V8.46A2.47,2.47,0,0,0,36.87,6a1,1,0,1,1,.26-2A4.46,4.46,0,0,1,41,8.46V9.54A4.46,4.46,0,0,1,36.54,14Z"/><path class="cls-9" d="M41,45H23a1,1,0,0,1,0-2H41a1,1,0,0,1,0,2Z"/><path class="cls-9" d="M41,50H23a1,1,0,0,1,0-2H41a1,1,0,0,1,0,2Z"/><path class="cls-9" d="M32,41a.84.84,0,0,1-.27,0,13.38,13.38,0,0,1-7.31-5.18A13.22,13.22,0,0,1,22,29.07a1,1,0,0,1,2-.14,11.2,11.2,0,0,0,2,5.71A11.41,11.41,0,0,0,32,39a11.41,11.41,0,0,0,5.94-4.32A11.25,11.25,0,0,0,40,28.14V20.32L32,18l-8,2.28V25a1,1,0,0,1-2,0V19.56a1,1,0,0,1,.73-1l9-2.56a1,1,0,0,1,.54,0l9,2.56a1,1,0,0,1,.73,1v8.58A13.32,13.32,0,0,1,32.27,41,.84.84,0,0,1,32,41Z"/><path class="cls-9" d="M32,31a5,5,0,1,1,5-5A5,5,0,0,1,32,31Zm0-8a3,3,0,1,0,3,3A3,3,0,0,0,32,23Z"/><path class="cls-9" d="M32,41a.84.84,0,0,1-.27,0,13.38,13.38,0,0,1-7.31-5.18,1,1,0,0,1-.15-.82,8,8,0,0,1,15.46,0,1,1,0,0,1-.15.82A13.38,13.38,0,0,1,32.27,41,.84.84,0,0,1,32,41Zm-5.66-6A11.51,11.51,0,0,0,32,39,11.51,11.51,0,0,0,37.66,35a5.85,5.85,0,0,0-1.42-2.26A6,6,0,0,0,26.34,35Z"/></g></svg>