<svg version="1.1" id="Layer_1" xmlns="http://www.w3.org/2000/svg" x="0px" y="0px"
	 width="100%" viewBox="0 0 499 312" enable-background="new 0 0 499 312" xml:space="preserve">
<path fill="#FFFFFF" opacity="1.000000" stroke="none" 
	d="
M355.000000,313.000000 
	C236.702988,313.000000 118.905968,313.000000 1.054477,313.000000 
	C1.054477,209.068390 1.054477,105.136757 1.054477,1.102559 
	C167.213638,1.102559 333.427368,1.102559 499.820557,1.102559 
	C499.820557,104.999741 499.820557,208.999847 499.820557,313.000000 
	C451.803497,313.000000 403.651733,313.000000 355.000000,313.000000 
M317.862518,280.005859 
	C320.233490,279.945679 322.604431,279.885498 325.488953,279.952606 
	C325.660126,279.910217 325.831329,279.867798 326.923431,280.015533 
	C375.844971,280.015533 424.766510,280.015533 473.688019,280.015533 
	C473.691925,279.544617 473.695801,279.073730 473.699707,278.602814 
	C464.144348,278.602814 454.588959,278.602814 445.174347,277.940399 
	C446.231598,275.709442 447.424042,273.531555 448.324066,271.238892 
	C453.935577,256.943878 455.597504,242.385193 447.590881,228.642975 
	C439.523651,214.796677 426.580170,205.469452 413.713196,195.391281 
	C412.806000,194.424957 411.893494,193.463516 410.992462,192.491486 
	C404.630676,185.628342 399.566803,178.100052 401.094299,168.180069 
	C401.885590,163.041412 403.666290,158.055115 405.571350,152.568741 
	C411.489563,138.975800 415.995880,125.082924 415.011963,109.947266 
	C413.997864,94.347710 407.968811,81.234131 395.708527,70.390572 
	C394.906982,69.548058 394.208160,68.567390 393.288605,67.883545 
	C376.408447,55.329781 357.169281,49.274216 336.410400,48.095612 
	C323.326538,47.352768 310.259369,48.033596 297.351654,50.955849 
	C281.000183,54.657753 265.270660,60.005806 252.523621,71.147842 
	C237.380615,84.384178 220.105057,90.612961 200.217300,89.973534 
	C183.317947,89.430168 166.422882,88.727264 149.531342,87.973671 
	C135.397232,87.343109 121.774261,89.649483 108.712189,94.983498 
	C97.901817,99.398018 87.630829,104.743385 79.303123,114.067451 
	C74.201820,119.377625 69.100517,124.687790 63.458618,130.385727 
	C59.309372,137.276031 55.160126,144.166321 50.462776,151.467270 
	C48.057484,159.279404 45.652187,167.091553 42.975956,175.707794 
	C40.415749,188.521393 40.639858,201.430344 42.423359,214.253677 
	C43.737099,223.699493 45.989353,233.014786 47.905430,243.156036 
	C50.135971,250.776718 52.366512,258.397400 54.652229,266.512726 
	C54.652229,266.512726 54.763916,266.997742 54.747032,267.512177 
	C54.786579,267.679108 54.826122,267.846039 54.923946,268.685974 
	C55.044128,269.119080 55.164310,269.552216 55.227303,270.618622 
	C55.766697,271.519928 56.306095,272.421204 56.861954,274.017639 
	C57.206623,275.577271 57.551296,277.136902 56.976379,278.810974 
	C48.597389,278.865936 40.218403,278.920868 31.376488,279.102600 
	C31.570284,279.384277 31.764080,279.665955 32.896961,280.034393 
	C113.450500,280.034149 194.004044,280.042206 274.557587,280.025177 
	C287.367737,280.022461 300.177917,279.906891 313.778351,280.000000 
	C314.847626,279.946014 315.916901,279.891998 317.862518,280.005859 
z"/>
<path fill="#EAF3FA" opacity="1.000000" stroke="none" 
	d="
M51.010872,151.056641 
	C55.160126,144.166321 59.309372,137.276031 64.136093,130.184021 
	C94.069412,123.272522 123.325256,116.562714 152.581100,109.852898 
	C152.479691,109.251091 152.378281,108.649284 152.276886,108.047470 
	C142.155685,108.759773 132.025528,109.365181 121.915436,110.210289 
	C107.932594,111.379128 93.964851,112.728447 79.990639,114.000473 
	C87.630829,104.743385 97.901817,99.398018 108.712189,94.983498 
	C121.774261,89.649483 135.397232,87.343109 149.531342,87.973671 
	C166.422882,88.727264 183.317947,89.430168 200.217300,89.973534 
	C220.105057,90.612961 237.380615,84.384178 252.523621,71.147842 
	C265.270660,60.005806 281.000183,54.657753 297.351654,50.955849 
	C310.259369,48.033596 323.326538,47.352768 336.410400,48.095612 
	C357.169281,49.274216 376.408447,55.329781 393.288605,67.883545 
	C394.208160,68.567390 394.906982,69.548058 395.631897,70.985092 
	C390.063171,73.330185 384.625702,75.280846 379.069519,76.796349 
	C356.314178,83.003098 333.540436,89.144714 310.731934,95.152618 
	C305.019653,96.657265 299.152832,97.575005 293.396606,98.332504 
	C293.829163,94.734314 295.791626,90.287437 291.455414,89.314812 
	C285.473999,87.973129 279.113922,88.021339 272.928131,88.134712 
	C271.654877,88.158051 269.521606,91.057404 269.467621,92.686928 
	C269.421021,94.092827 271.768768,95.578072 273.046204,97.432053 
	C272.726288,100.222649 272.418182,102.609428 271.759949,105.132294 
	C268.414948,106.203545 265.441040,107.213478 262.421631,108.061371 
	C246.852325,112.433487 231.271332,116.764046 215.324707,120.985046 
	C213.210739,120.610641 211.460968,120.122932 209.723434,120.163284 
	C206.821945,120.230675 203.928268,120.635704 201.007095,120.536514 
	C200.944016,119.449974 200.905151,118.725517 200.981903,117.655487 
	C201.749039,111.685211 199.121048,107.129715 194.649277,106.132172 
	C189.165131,104.908798 184.475464,107.128487 182.824280,111.729141 
	C180.922867,117.027039 183.439819,122.601677 188.895416,125.448059 
	C188.940292,126.541557 188.943771,127.270981 188.566727,128.047058 
	C169.262802,133.380020 150.366013,138.764084 131.408752,143.926025 
	C111.178253,149.434692 90.890633,154.733566 70.332085,159.981812 
	C63.694443,156.911957 57.352657,153.984299 51.010872,151.056641 
M325.943054,68.632957 
	C320.405762,65.871635 316.342255,66.674294 316.210938,70.851006 
	C316.145203,72.941772 317.453125,75.553772 318.997070,77.038620 
	C319.930145,77.935982 322.842102,77.737450 324.274963,76.953285 
	C327.264252,75.317360 327.666901,72.368942 325.943054,68.632957 
M155.879166,108.725861 
	C156.424271,108.533272 156.969360,108.340683 157.514465,108.148094 
	C157.386658,107.869064 157.258865,107.590042 157.131058,107.311005 
	C156.569794,107.637596 156.008530,107.964195 155.879166,108.725861 
z"/>
<path fill="#DBE8F9" opacity="1.000000" stroke="none" 
	d="
M414.011017,195.986786 
	C426.580170,205.469452 439.523651,214.796677 447.590881,228.642975 
	C455.597504,242.385193 453.935577,256.943878 448.324066,271.238892 
	C447.424042,273.531555 446.231598,275.709442 444.641785,278.366638 
	C437.099731,278.763458 430.090240,278.733978 422.834473,278.468750 
	C420.800018,277.732697 419.011871,277.232391 416.522186,276.535828 
	C418.464355,275.110657 419.949249,274.315735 421.030121,273.147156 
	C422.169342,271.915466 422.922729,270.326904 423.844727,268.894287 
	C422.083130,268.773010 420.321564,268.651733 418.331726,268.308411 
	C417.944275,267.946045 417.785065,267.805664 417.750763,267.323578 
	C418.302277,266.277557 419.000000,265.608704 419.097839,264.861359 
	C419.289368,263.398590 419.146149,261.892059 419.141510,260.403625 
	C417.604492,260.984528 415.948792,261.374329 414.579315,262.224976 
	C413.868927,262.666199 413.554108,263.886719 413.250854,264.817169 
	C411.600464,269.880707 412.379395,276.219666 405.413940,278.755737 
	C386.655182,278.752777 368.353516,278.694641 350.026978,278.192749 
	C349.353149,269.432556 349.376007,261.130920 348.418762,252.754791 
	C346.578369,236.650772 347.473450,220.234161 347.680817,203.963699 
	C349.626312,203.987198 351.154602,203.805740 352.618073,204.036148 
	C357.194458,204.756607 358.366760,202.709396 358.084808,198.424637 
	C357.735657,193.118912 358.001251,187.772766 358.001251,182.444077 
	C358.001251,168.446457 357.998779,168.531677 371.999847,168.933472 
	C375.000641,169.019577 376.186523,169.885269 376.044464,172.961227 
	C375.847778,177.220367 375.995087,181.495377 375.995087,185.763596 
	C377.013489,181.223145 376.041229,174.813278 378.574554,172.787628 
	C381.457245,170.482590 387.477783,172.222092 392.120178,171.955765 
	C395.297028,171.773499 396.130096,173.163391 396.042450,176.083252 
	C395.882629,181.407089 396.139038,186.744308 395.946716,192.065979 
	C395.834381,195.174332 397.034027,196.163956 400.025146,196.046890 
	C404.680756,195.864700 409.348450,195.991135 414.011017,195.986786 
z"/>
<path fill="#F2F7FD" opacity="1.000000" stroke="none" 
	d="
M293.357025,98.762497 
	C299.152832,97.575005 305.019653,96.657265 310.731934,95.152618 
	C333.540436,89.144714 356.314178,83.003098 379.069519,76.796349 
	C384.625702,75.280846 390.063171,73.330185 395.780640,71.287933 
	C407.968811,81.234131 413.997864,94.347710 415.011963,109.947266 
	C415.995880,125.082924 411.489563,138.975800 404.828369,152.784393 
	C399.819672,153.333115 395.537720,153.528030 391.291321,154.025772 
	C379.700287,155.384430 368.131653,156.934448 356.540131,158.288467 
	C345.277435,159.604080 333.997314,160.770569 322.899475,161.695953 
	C323.979004,160.432678 324.895355,159.486557 325.786835,158.517517 
	C330.550781,153.339096 330.744934,151.777740 326.319916,146.300751 
	C323.127686,142.349594 319.537384,138.720047 316.129944,134.572372 
	C316.033417,133.567993 316.158173,132.725754 315.796295,132.339935 
	C308.556915,124.621666 300.822266,117.786819 289.039185,117.905533 
	C288.597473,114.011765 288.352081,110.461609 288.395538,106.767792 
	C290.241943,104.003586 291.799469,101.383041 293.357025,98.762497 
z"/>
<path fill="#EAF3FA" opacity="1.000000" stroke="none" 
	d="
M322.724854,162.002533 
	C333.997314,160.770569 345.277435,159.604080 356.540131,158.288467 
	C368.131653,156.934448 379.700287,155.384430 391.291321,154.025772 
	C395.537720,153.528030 399.819672,153.333115 404.542664,153.000031 
	C403.666290,158.055115 401.885590,163.041412 401.094299,168.180069 
	C399.566803,178.100052 404.630676,185.628342 410.992462,192.491486 
	C411.893494,193.463516 412.806000,194.424957 413.862122,195.689026 
	C409.348450,195.991135 404.680756,195.864700 400.025146,196.046890 
	C397.034027,196.163956 395.834381,195.174332 395.946716,192.065979 
	C396.139038,186.744308 395.882629,181.407089 396.042450,176.083252 
	C396.130096,173.163391 395.297028,171.773499 392.120178,171.955765 
	C387.477783,172.222092 381.457245,170.482590 378.574554,172.787628 
	C376.041229,174.813278 377.013489,181.223145 375.995087,185.763596 
	C375.995087,181.495377 375.847778,177.220367 376.044464,172.961227 
	C376.186523,169.885269 375.000641,169.019577 371.999847,168.933472 
	C357.998779,168.531677 358.001251,168.446457 358.001251,182.444077 
	C358.001251,187.772766 357.735657,193.118912 358.084808,198.424637 
	C358.366760,202.709396 357.194458,204.756607 352.618073,204.036148 
	C351.154602,203.805740 349.626312,203.987198 347.624756,203.503265 
	C347.130920,197.384567 347.139984,191.742828 347.525452,186.055878 
	C348.914093,183.317841 349.926300,180.625000 350.983490,177.592499 
	C353.382629,172.223267 347.545807,172.593307 346.364502,169.116959 
	C344.280609,171.800842 342.659851,173.888245 341.037842,176.373672 
	C342.681641,179.861282 340.735291,184.788666 345.844360,186.577911 
	C345.825134,192.667831 345.781036,198.298248 345.319641,203.952606 
	C343.130951,204.056778 341.359619,204.137039 338.871765,204.249756 
	C338.871765,211.303070 338.871765,217.978363 338.871765,223.390686 
	C335.860840,225.047073 332.883514,225.670471 332.211578,227.265213 
	C330.800781,230.613510 328.337952,230.303787 326.130035,229.741364 
	C325.139069,229.488937 324.496033,227.154053 324.058624,225.657867 
	C323.664551,224.309814 323.766754,222.816696 323.617737,220.991516 
	C321.239166,220.991516 319.274597,220.991516 317.133362,220.671326 
	C315.270782,215.583679 312.921143,210.934204 312.048126,206.022278 
	C310.585907,197.795578 310.065399,189.401520 309.438202,180.766357 
	C309.920410,178.309921 310.113007,176.165009 310.497681,173.696808 
	C314.701416,169.583176 318.713135,165.792862 322.724854,162.002533 
z"/>
<path fill="#A9D2A1" opacity="1.000000" stroke="none" 
	d="
M47.823414,242.388229 
	C45.989353,233.014786 43.737099,223.699493 42.423359,214.253677 
	C40.639858,201.430344 40.415749,188.521393 43.464520,175.335052 
	C45.716740,175.824112 47.537193,176.587692 49.232399,177.567871 
	C52.925274,179.703125 56.554359,181.948715 60.330490,184.450226 
	C66.802010,189.484329 73.567017,192.320267 81.721611,190.032715 
	C89.022141,187.984741 96.151054,188.723785 103.184753,192.322647 
	C112.031639,199.312927 114.399368,207.686844 109.514793,214.784180 
	C108.218987,216.666977 106.478340,218.243652 104.566986,220.022675 
	C102.486519,220.718994 100.791481,221.868988 99.073822,221.903824 
	C88.467369,222.118942 80.522957,227.338593 73.674210,234.836868 
	C69.547554,239.354889 64.317207,241.613358 58.279606,242.010040 
	C54.800941,242.238586 51.309246,242.268768 47.823414,242.388229 
z"/>
<path fill="#C7DCF8" opacity="1.000000" stroke="none" 
	d="
M47.864422,242.772125 
	C51.309246,242.268768 54.800941,242.238586 58.279606,242.010040 
	C64.317207,241.613358 69.547554,239.354889 73.674210,234.836868 
	C80.522957,227.338593 88.467369,222.118942 99.073822,221.903824 
	C100.791481,221.868988 102.486519,220.718994 104.798012,220.301956 
	C114.835861,223.776764 123.185570,228.444717 130.578293,235.532150 
	C134.821732,239.600327 141.409286,241.223404 146.962860,244.405823 
	C146.322800,249.831833 145.369202,254.782104 145.076981,259.771118 
	C144.741577,265.497375 144.992264,271.257965 144.598572,277.002869 
	C142.481567,276.661194 140.754379,276.320312 139.019989,275.532959 
	C138.321625,271.713928 137.630463,268.341431 136.973663,264.611969 
	C137.831543,263.512817 138.655060,262.770630 140.024933,261.536011 
	C138.160873,261.404633 137.015732,261.097534 135.959961,261.287384 
	C130.379059,262.291077 127.612083,259.957123 127.513649,254.371033 
	C127.409416,248.455399 124.590080,246.194794 118.772751,247.571930 
	C117.517693,247.869034 116.132660,247.611832 114.807549,247.619095 
	C100.900002,247.695374 86.992455,247.773514 72.681198,247.792236 
	C71.195267,247.762573 70.113052,247.791840 68.783379,247.646973 
	C67.723534,247.986679 66.911156,248.500504 66.058945,249.339493 
	C66.352753,250.446198 66.686401,251.227737 66.992325,252.342560 
	C67.351128,254.790649 67.737656,256.905457 68.081474,259.392212 
	C68.702713,261.854248 69.366661,263.944366 69.604675,266.028015 
	C64.318184,266.020386 59.457619,266.019226 54.597054,266.018066 
	C52.366512,258.397400 50.135971,250.776718 47.864422,242.772125 
z"/>
<path fill="#83B57A" opacity="1.000000" stroke="none" 
	d="
M60.209511,184.149216 
	C56.554359,181.948715 52.925274,179.703125 49.232399,177.567871 
	C47.537193,176.587692 45.716740,175.824112 43.599991,174.933014 
	C45.652187,167.091553 48.057484,159.279404 50.736824,151.261963 
	C57.352657,153.984299 63.694443,156.911957 70.528656,160.272949 
	C71.913895,161.676987 72.875603,162.593475 73.688507,163.626999 
	C79.797279,171.393646 77.825851,177.921890 68.523476,181.019577 
	C65.716072,181.954453 62.978870,183.100113 60.209511,184.149216 
z"/>
<path fill="#F7FBFE" opacity="1.000000" stroke="none" 
	d="
M79.646881,114.033966 
	C93.964851,112.728447 107.932594,111.379128 121.915436,110.210289 
	C132.025528,109.365181 142.155685,108.759773 152.276886,108.047470 
	C152.378281,108.649284 152.479691,109.251091 152.581100,109.852898 
	C123.325256,116.562714 94.069412,123.272522 64.406387,129.990143 
	C69.100517,124.687790 74.201820,119.377625 79.646881,114.033966 
z"/>
<path fill="#A5CCA0" opacity="1.000000" stroke="none" 
	d="
M54.624641,266.265381 
	C59.457619,266.019226 64.318184,266.020386 69.861450,266.037170 
	C70.711967,266.087738 70.879784,266.122650 71.234924,266.421204 
	C77.363594,274.066315 84.847359,275.009613 93.647125,272.841034 
	C97.285095,271.944550 101.431877,272.850250 105.310638,273.272552 
	C108.697464,273.641266 112.074730,274.318359 115.378464,275.163269 
	C118.273788,275.903717 121.061058,277.066620 123.924088,278.221558 
	C123.952110,278.400177 123.949944,278.761749 123.487808,278.815826 
	C101.315773,278.812103 79.605865,278.754333 57.895966,278.696533 
	C57.551296,277.136902 57.206623,275.577271 56.899117,273.301880 
	C56.385685,271.719177 55.835091,270.852264 55.284492,269.985321 
	C55.164310,269.552216 55.044128,269.119080 55.090668,268.258026 
	C55.092896,267.552643 54.928406,267.275177 54.763916,266.997742 
	C54.763916,266.997742 54.652229,266.512726 54.624641,266.265381 
z"/>
<path fill="#393F5C" opacity="1.000000" stroke="none" 
	d="
M57.436172,278.753754 
	C79.605865,278.754333 101.315773,278.812103 123.823425,278.875488 
	C125.063713,278.813629 125.506241,278.746185 126.289642,278.747681 
	C127.085449,278.745758 127.540390,278.674927 128.432922,278.695801 
	C131.250977,278.725708 133.631424,278.663940 136.433533,278.697021 
	C138.580704,278.745911 140.306213,278.699951 142.262970,278.729553 
	C142.494202,278.805115 142.956528,278.653687 143.290649,278.718353 
	C144.071136,278.722290 144.517532,278.661560 145.389923,278.697296 
	C147.556747,278.731720 149.297562,278.669678 151.489059,278.698639 
	C155.897934,278.735657 159.856125,278.681671 164.262787,278.746826 
	C166.869904,278.783447 169.028534,278.700928 171.621643,278.696838 
	C175.515808,278.719055 178.975525,278.662842 182.945374,278.696259 
	C188.637070,278.730774 193.818619,278.675659 199.460663,278.708618 
	C223.631088,278.722382 247.341034,278.648071 271.508362,278.660706 
	C282.133911,278.746552 292.302032,278.745453 302.943176,278.813599 
	C306.606812,279.203033 309.797455,279.523254 312.988068,279.843506 
	C300.177917,279.906891 287.367737,280.022461 274.557587,280.025177 
	C194.004044,280.042206 113.450500,280.034149 32.362175,279.752747 
	C31.827389,279.471069 31.839413,278.975800 31.839413,278.975800 
	C40.218403,278.920868 48.597389,278.865936 57.436172,278.753754 
z"/>
<path fill="#293C65" opacity="1.000000" stroke="none" 
	d="
M313.383209,279.921753 
	C309.797455,279.523254 306.606812,279.203033 303.027740,278.448944 
	C303.267029,277.111542 303.698730,275.897095 304.555573,275.356842 
	C308.838684,272.655975 313.233307,270.131958 317.898651,267.659119 
	C320.229034,268.699493 322.143524,271.381042 324.629669,268.406616 
	C325.573730,272.104126 326.303406,275.542358 326.818054,279.062164 
	C326.330261,279.306976 326.130096,279.534210 326.002533,279.825378 
	C325.831329,279.867798 325.660126,279.910217 324.956848,279.645569 
	C321.945190,279.505005 319.465698,279.671478 316.986176,279.837982 
	C315.916901,279.891998 314.847626,279.946014 313.383209,279.921753 
z"/>
<path fill="#393F5C" opacity="1.000000" stroke="none" 
	d="
M326.462982,279.920471 
	C326.130096,279.534210 326.330261,279.306976 327.279022,278.995728 
	C332.953827,278.769073 337.952606,278.690460 343.349304,278.702148 
	C344.828430,278.723389 345.909637,278.654327 347.367676,278.679260 
	C348.513641,278.727661 349.282776,278.682068 350.051880,278.636475 
	C368.353516,278.694641 386.655182,278.752777 405.882294,278.828125 
	C412.232086,278.798370 417.656433,278.751465 423.080750,278.704529 
	C430.090240,278.733978 437.099731,278.763458 444.571411,278.697876 
	C454.588959,278.602814 464.144348,278.602814 473.699707,278.602814 
	C473.695801,279.073730 473.691925,279.544617 473.688019,280.015533 
	C424.766510,280.015533 375.844971,280.015533 326.462982,279.920471 
z"/>
<path fill="#393F5C" opacity="1.000000" stroke="none" 
	d="
M317.424347,279.921936 
	C319.465698,279.671478 321.945190,279.505005 324.700073,279.581909 
	C322.604431,279.885498 320.233490,279.945679 317.424347,279.921936 
z"/>
<path fill="#ADD0A7" opacity="1.000000" stroke="none" 
	d="
M55.255898,270.301971 
	C55.835091,270.852264 56.385685,271.719177 56.890884,272.954315 
	C56.306095,272.421204 55.766697,271.519928 55.255898,270.301971 
z"/>
<path fill="#ADD0A7" opacity="1.000000" stroke="none" 
	d="
M54.755478,267.254944 
	C54.928406,267.275177 55.092896,267.552643 55.061523,267.921509 
	C54.826122,267.846039 54.786579,267.679108 54.755478,267.254944 
z"/>
<path fill="#ADD0A7" opacity="1.000000" stroke="none" 
	d="
M31.607950,279.039185 
	C31.839413,278.975800 31.827389,279.471069 31.892632,279.709351 
	C31.764080,279.665955 31.570284,279.384277 31.607950,279.039185 
z"/>
<path fill="#F2F7FC" opacity="1.000000" stroke="none" 
	d="
M60.330490,184.450226 
	C62.978870,183.100113 65.716072,181.954453 68.523476,181.019577 
	C77.825851,177.921890 79.797279,171.393646 73.688507,163.626999 
	C72.875603,162.593475 71.913895,161.676987 70.824524,160.415161 
	C90.890633,154.733566 111.178253,149.434692 131.408752,143.926025 
	C150.366013,138.764084 169.262802,133.380020 188.631958,128.449265 
	C189.046600,130.428513 189.015472,132.052200 188.606232,133.755249 
	C178.160126,136.939255 175.536377,140.444641 175.840546,150.251587 
	C174.961594,153.567291 174.374741,156.625900 173.528351,161.037186 
	C166.495270,156.976608 160.110336,153.290237 153.591782,149.526718 
	C151.917862,152.606461 151.692825,155.107559 156.297256,156.230957 
	C157.813858,156.600983 159.109970,157.895370 160.492859,158.788803 
	C164.664978,161.484268 168.775543,164.280121 173.015915,166.863174 
	C176.240402,168.827393 178.598251,167.984512 180.045700,164.342880 
	C180.816727,162.403076 182.055527,160.649200 183.229736,159.173584 
	C186.710632,166.727264 183.950394,173.898331 182.820923,181.054230 
	C172.210739,182.019913 162.083710,183.007874 151.963715,183.576630 
	C151.969879,181.759964 151.968994,180.362534 151.988251,178.602478 
	C153.960098,173.393707 150.544342,172.041702 146.313599,170.150101 
	C145.167969,172.150620 144.052032,174.099304 142.949738,176.462982 
	C143.311813,179.585037 143.660248,182.292099 143.570923,184.999664 
	C130.341949,186.687607 117.547096,188.348877 104.769882,190.136200 
	C104.098602,190.230087 103.576981,191.393753 102.985672,192.059372 
	C96.151054,188.723785 89.022141,187.984741 81.721611,190.032715 
	C73.567017,192.320267 66.802010,189.484329 60.330490,184.450226 
z"/>
<path fill="#F2F6FB" opacity="1.000000" stroke="none" 
	d="
M215.694412,121.109100 
	C231.271332,116.764046 246.852325,112.433487 262.421631,108.061371 
	C265.441040,107.213478 268.414948,106.203545 271.799133,105.513397 
	C272.940613,107.663902 273.874115,109.520782 274.401001,111.486641 
	C275.130005,114.206558 275.553009,117.008499 275.745483,119.854599 
	C266.778778,124.104095 263.337372,132.523941 265.856110,142.971283 
	C264.797974,145.984421 264.090576,148.727921 263.099945,151.365021 
	C262.749390,152.298279 261.462708,153.778519 261.019012,153.643494 
	C254.281036,151.592865 245.656082,154.442230 241.241638,146.099548 
	C240.708435,145.091843 238.102646,143.961441 237.793808,144.261841 
	C236.321518,145.693878 234.961914,147.479950 234.299973,149.395081 
	C234.016907,150.214050 235.251801,152.216187 236.271866,152.720917 
	C243.247665,156.172516 250.345322,159.378433 257.412079,162.645432 
	C266.555115,166.872284 268.012970,166.414154 273.440094,158.106628 
	C273.730713,161.972382 273.787994,165.483032 273.407288,168.995972 
	C265.251495,169.855331 257.525085,170.642212 249.817902,171.585892 
	C238.172775,173.011703 226.541046,174.546814 214.669556,175.783981 
	C213.608658,173.361252 212.781815,171.190033 212.102966,168.706268 
	C215.929916,166.154083 219.670578,164.008514 223.269241,161.646591 
	C226.441406,159.564590 227.916336,156.889801 225.166946,153.358582 
	C222.740280,150.241837 220.305130,147.131699 217.864868,143.658234 
	C217.325974,141.966278 216.795929,140.634720 216.585754,139.029114 
	C216.501877,132.873077 216.098145,126.991081 215.694412,121.109100 
z"/>
<path fill="#FBB280" opacity="1.000000" stroke="none" 
	d="
M276.107056,119.775314 
	C275.553009,117.008499 275.130005,114.206558 274.401001,111.486641 
	C273.874115,109.520782 272.940613,107.663902 272.149231,105.377319 
	C272.418182,102.609428 272.726288,100.222649 273.411224,97.284851 
	C277.586334,95.624733 281.289368,94.506943 283.241364,99.716209 
	C283.537750,100.507095 285.423798,100.702301 286.644012,101.201439 
	C287.072327,102.873528 287.589508,104.892487 288.106689,106.911446 
	C288.352081,110.461609 288.597473,114.011765 289.067902,118.283737 
	C287.872101,123.919296 283.798065,123.884766 279.823181,124.161018 
	C276.482941,124.393158 275.270935,122.995598 276.107056,119.775314 
z"/>
<path fill="#344068" opacity="1.000000" stroke="none" 
	d="
M288.395538,106.767792 
	C287.589508,104.892487 287.072327,102.873528 286.644012,101.201439 
	C285.423798,100.702301 283.537750,100.507095 283.241364,99.716209 
	C281.289368,94.506943 277.586334,95.624733 273.423035,96.881035 
	C271.768768,95.578072 269.421021,94.092827 269.467621,92.686928 
	C269.521606,91.057404 271.654877,88.158051 272.928131,88.134712 
	C279.113922,88.021339 285.473999,87.973129 291.455414,89.314812 
	C295.791626,90.287437 293.829163,94.734314 293.396606,98.332512 
	C291.799469,101.383041 290.241943,104.003586 288.395538,106.767792 
z"/>
<path fill="#FBB280" opacity="1.000000" stroke="none" 
	d="
M188.984344,133.675888 
	C189.015472,132.052200 189.046600,130.428513 189.012482,128.402618 
	C188.943771,127.270981 188.940292,126.541557 188.861771,125.060326 
	C188.762985,122.642822 188.028519,120.317429 188.848083,119.434486 
	C191.357147,116.731354 194.463120,114.582253 197.609406,111.993477 
	C197.866287,112.429573 198.529724,113.493546 199.129929,114.592064 
	C199.741119,115.710693 200.290070,116.863319 200.866272,118.001068 
	C200.905151,118.725517 200.944016,119.449974 200.850327,120.869690 
	C200.194580,125.064171 196.806305,128.368546 199.993622,132.491577 
	C198.011810,137.840454 195.405823,138.868210 188.073013,137.301346 
	C188.379898,136.080536 188.682114,134.878204 188.984344,133.675888 
z"/>
<path fill="#293C65" opacity="1.000000" stroke="none" 
	d="
M199.999924,132.120544 
	C196.806305,128.368546 200.194580,125.064171 200.874542,121.231766 
	C203.928268,120.635704 206.821945,120.230675 209.723434,120.163284 
	C211.460968,120.122932 213.210739,120.610641 215.324707,120.985046 
	C216.098145,126.991081 216.501877,132.873077 216.352753,138.844009 
	C211.780365,133.769699 206.222458,132.174408 199.999924,132.120544 
z"/>
<path fill="#293C65" opacity="1.000000" stroke="none" 
	d="
M200.981903,117.655487 
	C200.290070,116.863319 199.741119,115.710693 199.129929,114.592064 
	C198.529724,113.493546 197.866287,112.429573 197.609406,111.993477 
	C194.463120,114.582253 191.357147,116.731354 188.848083,119.434486 
	C188.028519,120.317429 188.762985,122.642822 188.820374,124.696259 
	C183.439819,122.601677 180.922867,117.027039 182.824280,111.729141 
	C184.475464,107.128487 189.165131,104.908798 194.649277,106.132172 
	C199.121048,107.129715 201.749039,111.685211 200.981903,117.655487 
z"/>
<path fill="#F7FBFE" opacity="1.000000" stroke="none" 
	d="
M326.210968,68.935356 
	C327.666901,72.368942 327.264252,75.317360 324.274963,76.953285 
	C322.842102,77.737450 319.930145,77.935982 318.997070,77.038620 
	C317.453125,75.553772 316.145203,72.941772 316.210938,70.851006 
	C316.342255,66.674294 320.405762,65.871635 326.210968,68.935356 
z"/>
<path fill="#F7FBFE" opacity="1.000000" stroke="none" 
	d="
M155.663208,108.508324 
	C156.008530,107.964195 156.569794,107.637596 157.131058,107.311005 
	C157.258865,107.590042 157.386658,107.869064 157.514465,108.148102 
	C156.969360,108.340683 156.424271,108.533272 155.663208,108.508324 
z"/>
<path fill="#83B57A" opacity="1.000000" stroke="none" 
	d="
M422.834473,278.468781 
	C417.656433,278.751465 412.232086,278.798370 406.339417,278.772949 
	C412.379395,276.219666 411.600464,269.880707 413.250854,264.817169 
	C413.554108,263.886719 413.868927,262.666199 414.579315,262.224976 
	C415.948792,261.374329 417.604492,260.984528 419.141510,260.403625 
	C419.146149,261.892059 419.289368,263.398590 419.097839,264.861359 
	C419.000000,265.608704 418.302277,266.277557 417.549255,267.522125 
	C416.980774,268.566681 416.738770,269.071014 416.314148,269.799866 
	C415.935913,270.562073 415.740356,271.099762 415.344055,271.845215 
	C415.089539,272.653656 415.035767,273.254425 414.981964,273.855164 
	C415.397034,273.303009 415.812103,272.750854 416.446014,272.020874 
	C416.885254,271.326935 417.105682,270.810822 417.538757,270.118195 
	C418.020966,269.471252 418.290466,269.000854 418.559967,268.530426 
	C420.321564,268.651733 422.083130,268.773010 423.844727,268.894287 
	C422.922729,270.326904 422.169342,271.915466 421.030121,273.147156 
	C419.949249,274.315735 418.464355,275.110657 416.522186,276.535828 
	C419.011871,277.232391 420.800018,277.732697 422.834473,278.468781 
z"/>
<path fill="#AAC9F7" opacity="1.000000" stroke="none" 
	d="
M350.026978,278.192749 
	C349.282776,278.682068 348.513641,278.727661 347.368713,278.239410 
	C346.994354,271.886932 347.133087,266.062805 346.900879,260.253510 
	C346.842712,258.797913 345.592285,257.389984 344.919006,255.523956 
	C345.211121,238.034744 345.474030,220.981705 345.736938,203.928680 
	C345.781036,198.298248 345.825134,192.667831 345.979462,186.387054 
	C346.442810,185.858154 346.795898,185.979614 347.149017,186.101074 
	C347.139984,191.742828 347.130920,197.384567 347.177917,203.486755 
	C347.473450,220.234161 346.578369,236.650772 348.418762,252.754791 
	C349.376007,261.130920 349.353149,269.432556 350.026978,278.192749 
z"/>
<path fill="#2C5096" opacity="1.000000" stroke="none" 
	d="
M275.745483,119.854599 
	C275.270935,122.995598 276.482941,124.393158 279.823181,124.161018 
	C283.798065,123.884766 287.872101,123.919296 289.264221,118.627350 
	C300.822266,117.786819 308.556915,124.621666 315.796295,132.339935 
	C316.158173,132.725754 316.033417,133.567993 315.939819,134.863495 
	C313.426849,138.045090 311.034393,140.498291 308.842926,143.119492 
	C308.274963,143.798828 308.336304,145.004257 308.070190,146.438385 
	C308.325287,152.960922 308.618774,159.013123 308.630585,165.270905 
	C306.413116,166.989792 302.616669,169.066727 302.873871,169.915756 
	C303.825409,173.057129 306.295898,175.442535 310.305603,174.020111 
	C310.113007,176.165009 309.920410,178.309921 309.107666,180.803314 
	C299.342560,181.809250 290.197571,182.466690 280.709167,183.003937 
	C278.332123,182.240601 276.298523,181.597488 274.245148,180.619781 
	C274.188782,179.842499 274.152191,179.399796 274.144592,178.559174 
	C274.073334,177.104767 273.973083,176.048264 273.933228,174.566193 
	C273.944183,172.424957 273.894714,170.709320 273.845276,168.993668 
	C273.787994,165.483032 273.730713,161.972382 273.437500,157.718018 
	C271.571808,151.835907 271.768982,145.790543 266.095276,142.659729 
	C263.337372,132.523941 266.778778,124.104095 275.745483,119.854599 
z"/>
<path fill="#FBB280" opacity="1.000000" stroke="none" 
	d="
M308.108582,145.968033 
	C308.336304,145.004257 308.274963,143.798828 308.842926,143.119492 
	C311.034393,140.498291 313.426849,138.045090 315.934509,135.238159 
	C319.537384,138.720047 323.127686,142.349594 326.319916,146.300751 
	C330.744934,151.777740 330.550781,153.339096 325.786835,158.517517 
	C324.895355,159.486557 323.979004,160.432678 322.899475,161.695953 
	C318.713135,165.792862 314.701416,169.583176 310.497650,173.696808 
	C306.295898,175.442535 303.825409,173.057129 302.873871,169.915756 
	C302.616669,169.066727 306.413116,166.989792 308.966309,165.168091 
	C310.274963,163.940948 311.037109,163.066742 311.646729,162.096695 
	C318.671814,150.917709 318.896179,153.542542 308.108582,145.968033 
z"/>
<path fill="#F99748" opacity="1.000000" stroke="none" 
	d="
M281.052612,183.124130 
	C290.197571,182.466690 299.342560,181.809250 308.818054,181.114838 
	C310.065399,189.401520 310.585907,197.795578 312.048126,206.022278 
	C312.921143,210.934204 315.270782,215.583679 317.190857,221.031631 
	C319.755157,237.190552 322.085236,252.668961 324.415314,268.147369 
	C322.143524,271.381042 320.229034,268.699493 317.816711,267.284302 
	C312.909363,249.135986 304.996246,233.110901 294.077515,218.174454 
	C291.973419,214.206223 289.967255,210.548630 287.972229,206.498932 
	C285.673126,198.445908 283.362885,190.785019 281.052612,183.124130 
z"/>
<path fill="#DBE8F9" opacity="1.000000" stroke="none" 
	d="
M324.629669,268.406616 
	C322.085236,252.668961 319.755157,237.190552 317.367554,221.351837 
	C319.274597,220.991516 321.239166,220.991516 323.617737,220.991516 
	C323.766754,222.816696 323.664551,224.309814 324.058624,225.657867 
	C324.496033,227.154053 325.139069,229.488937 326.130035,229.741364 
	C328.337952,230.303787 330.800781,230.613510 332.211578,227.265213 
	C332.883514,225.670471 335.860840,225.047073 338.871765,223.390686 
	C338.871765,217.978363 338.871765,211.303070 338.871765,204.249756 
	C341.359619,204.137039 343.130951,204.056778 345.319611,203.952606 
	C345.474030,220.981705 345.211121,238.034744 344.537964,255.636032 
	C343.756958,257.698486 343.102417,259.205780 343.065613,260.728058 
	C342.921631,266.686768 342.972748,272.650177 342.951355,278.611847 
	C337.952606,278.690460 332.953827,278.769073 327.494080,278.914185 
	C326.303406,275.542358 325.573730,272.104126 324.629669,268.406616 
z"/>
<path fill="#C7DCF8" opacity="1.000000" stroke="none" 
	d="
M347.525452,186.055878 
	C346.795898,185.979614 346.442810,185.858154 345.954590,185.927551 
	C340.735291,184.788666 342.681641,179.861282 341.474426,176.380676 
	C344.921021,176.637177 347.929779,177.284668 350.938507,177.932159 
	C349.926300,180.625000 348.914093,183.317841 347.525452,186.055878 
z"/>
<path fill="#B0CEFB" opacity="1.000000" stroke="none" 
	d="
M350.983490,177.592499 
	C347.929779,177.284668 344.921021,176.637177 341.475708,175.982666 
	C342.659851,173.888245 344.280609,171.800842 346.364502,169.116959 
	C347.545807,172.593307 353.382629,172.223267 350.983490,177.592499 
z"/>
<path fill="#E9F2FA" opacity="1.000000" stroke="none" 
	d="
M103.184753,192.322647 
	C103.576981,191.393753 104.098602,190.230087 104.769882,190.136200 
	C117.547096,188.348877 130.341949,186.687607 143.858856,185.125488 
	C145.364456,185.517288 146.144379,185.783737 146.940063,186.515411 
	C146.951096,205.969498 146.946335,224.958359 146.941559,243.947205 
	C141.409286,241.223404 134.821732,239.600327 130.578293,235.532150 
	C123.185570,228.444717 114.835861,223.776764 105.172974,220.240173 
	C106.478340,218.243652 108.218987,216.666977 109.514793,214.784180 
	C114.399368,207.686844 112.031639,199.312927 103.184753,192.322647 
z"/>
<path fill="#F3994A" opacity="1.000000" stroke="none" 
	d="
M68.124184,259.020264 
	C67.737656,256.905457 67.351128,254.790649 67.253334,252.151733 
	C67.060966,250.756531 66.579872,249.885422 66.098778,249.014328 
	C66.911156,248.500504 67.723534,247.986679 68.963654,247.947693 
	C70.622574,248.232056 71.853745,248.041611 73.084915,247.851166 
	C86.992455,247.773514 100.900002,247.695374 114.807549,247.619095 
	C116.132660,247.611832 117.517693,247.869034 118.772751,247.571930 
	C124.590080,246.194794 127.409416,248.455399 127.513649,254.371033 
	C127.612083,259.957123 130.379059,262.291077 135.959961,261.287384 
	C137.015732,261.097534 138.160873,261.404633 140.024933,261.536011 
	C138.655060,262.770630 137.831543,263.512817 136.749527,264.615875 
	C136.491043,264.976715 136.051682,264.886993 135.896500,264.579437 
	C134.481445,263.924133 133.221588,263.576385 131.731674,263.171753 
	C131.501633,263.114868 131.038971,263.217529 130.657303,263.151245 
	C129.505142,263.128296 128.734634,263.171631 127.732712,263.160614 
	C127.501274,263.106262 127.038185,263.213989 126.701538,263.149536 
	C125.912971,263.133270 125.461060,263.181519 124.638435,263.289856 
	C111.510071,263.195099 98.752419,263.040253 85.903030,262.493530 
	C83.491982,261.728546 81.167847,261.382843 78.854485,260.975861 
	C75.273849,260.345978 71.700577,259.674255 68.124184,259.020264 
z"/>
<path fill="#AAC9F7" opacity="1.000000" stroke="none" 
	d="
M146.962860,244.405838 
	C146.946335,224.958359 146.951096,205.969498 147.099625,186.284882 
	C147.835907,185.730942 148.428436,185.872742 149.005203,186.482056 
	C149.009735,206.283340 149.030029,225.617111 149.033142,245.406830 
	C149.678955,254.795074 150.365662,263.725708 150.986435,272.660919 
	C151.123581,274.634827 151.027222,276.624969 151.038391,278.607635 
	C149.297562,278.669678 147.556747,278.731720 145.391098,278.431000 
	C144.973648,277.713379 144.981003,277.358521 144.988358,277.003662 
	C144.992264,271.257965 144.741577,265.497375 145.076981,259.771118 
	C145.369202,254.782104 146.322800,249.831833 146.962860,244.405838 
z"/>
<path fill="#EC7E2D" opacity="1.000000" stroke="none" 
	d="
M68.081474,259.392212 
	C71.700577,259.674255 75.273849,260.345978 78.854485,260.975861 
	C81.167847,261.382843 83.491982,261.728546 85.612961,262.701599 
	C84.939545,264.125000 84.464462,264.948486 83.940208,265.857239 
	C81.280502,261.721222 73.563171,262.011597 71.047600,266.157593 
	C70.879784,266.122650 70.711967,266.087738 70.287384,266.043640 
	C69.366661,263.944366 68.702713,261.854248 68.081474,259.392212 
z"/>
<path fill="#C8DBF5" opacity="1.000000" stroke="none" 
	d="
M136.051682,264.886993 
	C136.051682,264.886993 136.491043,264.976715 136.715179,264.972809 
	C137.630463,268.341431 138.321625,271.713928 139.002319,275.544983 
	C138.991867,276.003479 138.956497,276.025513 138.642288,275.970337 
	C137.569275,272.239105 136.810471,268.563049 136.051682,264.886993 
z"/>
<path fill="#C8DBF5" opacity="1.000000" stroke="none" 
	d="
M144.598572,277.002869 
	C144.981003,277.358521 144.973648,277.713379 144.965088,278.334534 
	C144.517532,278.661560 144.071136,278.722290 143.201813,278.594360 
	C142.461304,278.250549 142.212265,278.333313 142.031738,278.653992 
	C140.306213,278.699951 138.580704,278.745911 136.502289,278.403961 
	C137.085098,277.352570 138.020798,276.689056 138.956497,276.025513 
	C138.956497,276.025513 138.991867,276.003479 139.009521,275.991455 
	C140.754379,276.320312 142.481567,276.661194 144.598572,277.002869 
z"/>
<path fill="#EC7E2D" opacity="1.000000" stroke="none" 
	d="
M66.058945,249.339493 
	C66.579872,249.885422 67.060966,250.756531 67.281052,251.818451 
	C66.686401,251.227737 66.352753,250.446198 66.058945,249.339493 
z"/>
<path fill="#EC7E2D" opacity="1.000000" stroke="none" 
	d="
M72.681198,247.792236 
	C71.853745,248.041611 70.622574,248.232056 69.211121,248.121811 
	C70.113052,247.791840 71.195267,247.762573 72.681198,247.792236 
z"/>
<path fill="#C8DBF5" opacity="1.000000" stroke="none" 
	d="
M71.234924,266.421204 
	C73.563171,262.011597 81.280502,261.721222 83.940208,265.857239 
	C84.464462,264.948486 84.939545,264.125000 85.704697,263.093445 
	C98.752419,263.040253 111.510071,263.195099 124.697327,263.669128 
	C126.083054,268.860260 127.039185,273.732147 127.995316,278.604065 
	C127.540390,278.674927 127.085449,278.745758 126.087868,278.553650 
	C124.995506,278.208099 124.445786,278.125519 123.896057,278.042908 
	C121.061058,277.066620 118.273788,275.903717 115.378464,275.163269 
	C112.074730,274.318359 108.697464,273.641266 105.310638,273.272552 
	C101.431877,272.850250 97.285095,271.944550 93.647125,272.841034 
	C84.847359,275.009613 77.363594,274.066315 71.234924,266.421204 
z"/>
<path fill="#AAC9F7" opacity="1.000000" stroke="none" 
	d="
M123.924088,278.221558 
	C124.445786,278.125519 124.995506,278.208099 125.746994,278.484741 
	C125.506241,278.746185 125.063713,278.813629 124.285568,278.821411 
	C123.949944,278.761749 123.952110,278.400177 123.924088,278.221558 
z"/>
<path fill="#DBE7F9" opacity="1.000000" stroke="none" 
	d="
M294.175446,218.485107 
	C304.996246,233.110901 312.909363,249.135986 317.506775,267.170959 
	C313.233307,270.131958 308.838684,272.655975 304.555573,275.356842 
	C303.698730,275.897095 303.267029,277.111542 302.554749,278.379761 
	C292.302032,278.745453 282.133911,278.746552 271.492340,278.319946 
	C268.358521,272.455719 260.938721,267.843414 255.150314,269.294769 
	C243.933838,272.107147 235.276337,267.483032 226.703644,261.311157 
	C219.080933,255.823181 213.514572,247.076065 203.010986,245.570068 
	C203.669617,239.734039 204.334152,234.367264 205.259262,229.235733 
	C207.213989,230.597244 208.763489,232.198074 210.627747,232.766266 
	C218.032104,235.023041 225.534760,236.957352 232.998993,239.471878 
	C232.997711,241.905289 233.105042,243.885071 232.973465,245.848846 
	C232.789352,248.596619 233.437561,250.238693 236.706940,250.052856 
	C239.498199,249.894211 242.155884,250.039902 242.010651,246.089935 
	C241.956421,244.614807 242.074127,243.133347 242.483826,241.685913 
	C243.830002,241.881363 244.805771,242.045685 245.976120,242.482193 
	C248.482666,245.578430 250.794647,248.402496 253.106613,251.226547 
	C253.491135,251.073883 253.875641,250.921234 254.260162,250.768570 
	C253.701950,245.700714 253.143723,240.632843 252.545486,235.201630 
	C249.976898,235.949860 247.948166,236.540833 245.627350,236.984650 
	C243.844650,235.575668 242.354034,234.313812 241.184433,232.772797 
	C241.670120,230.691223 241.973251,228.889175 241.977676,227.086395 
	C242.015686,211.587387 242.142670,196.086044 241.906494,180.590546 
	C241.841736,176.342026 242.771164,174.693314 247.379120,174.889587 
	C256.195801,175.265076 265.040009,174.994324 273.872803,174.991760 
	C273.973083,176.048264 274.073334,177.104767 273.875610,178.716370 
	C273.379761,179.843872 273.181915,180.416290 272.744141,181.158615 
	C272.576050,182.201477 272.647888,183.074432 272.772583,184.191376 
	C272.825439,184.435379 272.861603,184.933380 272.591553,185.157425 
	C268.719513,196.026291 264.792877,206.579178 261.734436,217.377930 
	C260.928955,220.221954 262.102386,224.211777 263.621460,226.989426 
	C265.811371,230.993607 269.147430,234.370941 271.995605,238.477631 
	C271.998962,250.056320 271.998962,250.056320 283.117920,250.186752 
	C285.420135,252.569717 287.455719,254.743134 289.358643,257.315460 
	C287.907715,263.471985 286.589447,269.229584 285.271210,274.987213 
	C285.694519,275.064606 286.117828,275.141968 286.541138,275.219360 
	C292.013397,269.605591 297.485626,263.991821 303.167755,258.162781 
	C300.418701,256.446747 297.661163,254.725433 294.730530,252.694427 
	C293.330536,249.012894 292.103668,245.641037 291.096344,241.924957 
	C291.878632,239.794647 292.772156,238.039642 292.943268,236.216797 
	C293.496796,230.319641 293.785004,224.397583 294.175446,218.485107 
z"/>
<path fill="#C6DBF8" opacity="1.000000" stroke="none" 
	d="
M151.489059,278.698639 
	C151.027222,276.624969 151.123581,274.634827 150.986435,272.660919 
	C150.365662,263.725708 149.678955,254.795074 149.456177,245.427155 
	C152.654236,245.325256 155.409607,245.920029 158.170410,245.946533 
	C168.878876,246.049347 179.589066,245.971344 190.502991,246.294327 
	C191.385635,254.960464 192.063934,263.292938 192.426468,271.774353 
	C188.885559,274.151093 185.660400,276.378845 182.435242,278.606628 
	C178.975525,278.662842 175.515808,278.719055 171.509247,278.382843 
	C167.628433,276.324768 166.015320,273.260651 164.344559,270.160553 
	C163.983231,269.490082 162.586426,269.377686 161.670395,269.009766 
	C162.454422,272.526947 163.134384,275.577332 163.814331,278.627686 
	C159.856125,278.681671 155.897934,278.735657 151.489059,278.698639 
z"/>
<path fill="#C4D9F6" opacity="1.000000" stroke="none" 
	d="
M203.016876,246.039337 
	C213.514572,247.076065 219.080933,255.823181 226.703644,261.311157 
	C235.276337,267.483032 243.933838,272.107147 255.150314,269.294769 
	C260.938721,267.843414 268.358521,272.455719 271.034943,278.233032 
	C247.341034,278.648071 223.631088,278.722382 199.397995,278.346558 
	C198.379898,275.957764 197.884964,274.019073 197.524048,271.659851 
	C199.036530,263.143738 200.414978,255.048187 201.991913,246.906769 
	C202.465897,246.587051 202.741379,246.313187 203.016876,246.039337 
z"/>
<path fill="#C7DCF8" opacity="1.000000" stroke="none" 
	d="
M128.432922,278.695801 
	C127.039185,273.732147 126.083054,268.860260 125.068024,263.609039 
	C125.461060,263.181519 125.912971,263.133270 126.790512,263.281219 
	C127.216125,263.477386 127.643356,263.546173 127.643356,263.546173 
	C127.643356,263.546173 127.964142,263.214996 127.964142,263.214966 
	C128.734634,263.171631 129.505142,263.128296 130.745056,263.282654 
	C131.214478,263.480347 131.638779,263.553558 131.638779,263.553558 
	C131.638779,263.553558 131.961716,263.228638 131.961716,263.228638 
	C133.221588,263.576385 134.481445,263.924133 135.896500,264.579437 
	C136.810471,268.563049 137.569275,272.239105 138.642288,275.970337 
	C138.020798,276.689056 137.085098,277.352570 136.080643,278.309143 
	C133.631424,278.663940 131.250977,278.725708 128.432922,278.695801 
z"/>
<path fill="#F3994A" opacity="1.000000" stroke="none" 
	d="
M197.390030,272.080383 
	C197.884964,274.019073 198.379898,275.957764 198.937500,278.258514 
	C193.818619,278.675659 188.637070,278.730774 182.945374,278.696228 
	C185.660400,276.378845 188.885559,274.151093 192.745392,271.915955 
	C194.716736,271.965881 196.053375,272.023132 197.390030,272.080383 
z"/>
<path fill="#83B57A" opacity="1.000000" stroke="none" 
	d="
M164.262802,278.746826 
	C163.134384,275.577332 162.454422,272.526947 161.670395,269.009766 
	C162.586426,269.377686 163.983231,269.490082 164.344559,270.160553 
	C166.015320,273.260651 167.628433,276.324768 171.074799,278.304382 
	C169.028534,278.700928 166.869904,278.783447 164.262802,278.746826 
z"/>
<path fill="#AAC9F7" opacity="1.000000" stroke="none" 
	d="
M142.262970,278.729553 
	C142.212265,278.333313 142.461304,278.250549 142.867706,278.529663 
	C142.956528,278.653687 142.494202,278.805115 142.262970,278.729553 
z"/>
<path fill="#B0CEFB" opacity="1.000000" stroke="none" 
	d="
M343.349304,278.702148 
	C342.972748,272.650177 342.921631,266.686768 343.065613,260.728058 
	C343.102417,259.205780 343.756958,257.698486 344.508728,256.072235 
	C345.592285,257.389984 346.842712,258.797913 346.900879,260.253510 
	C347.133087,266.062805 346.994354,271.886932 346.991882,278.145447 
	C345.909637,278.654327 344.828430,278.723389 343.349304,278.702148 
z"/>
<path fill="#E9F2FA" opacity="1.000000" stroke="none" 
	d="
M190.298615,245.960663 
	C179.589066,245.971344 168.878876,246.049347 158.170410,245.946533 
	C155.409607,245.920029 152.654236,245.325256 149.473358,244.971191 
	C149.030029,225.617111 149.009735,206.283340 149.314926,186.442780 
	C150.412491,185.289261 151.184586,184.642548 151.956680,183.995834 
	C162.083710,183.007874 172.210739,182.019913 182.845367,181.409119 
	C183.353333,182.730911 183.353714,183.675568 183.236572,185.081284 
	C183.343933,193.959900 182.885345,202.465668 183.957535,210.773865 
	C185.481018,222.578964 188.130341,234.238785 190.298615,245.960663 
z"/>
<path fill="#F99747" opacity="1.000000" stroke="none" 
	d="
M183.354111,184.620209 
	C183.353714,183.675568 183.353333,182.730911 183.328506,181.431381 
	C183.950394,173.898331 186.710632,166.727264 183.176849,158.812378 
	C181.894302,154.377396 181.024261,150.485626 176.132660,149.994507 
	C175.536377,140.444641 178.160126,136.939255 188.606232,133.755249 
	C188.682114,134.878204 188.379898,136.080536 188.073013,137.301346 
	C195.405823,138.868210 198.011810,137.840454 199.993622,132.491577 
	C206.222458,132.174408 211.780365,133.769699 216.032898,139.118042 
	C216.795929,140.634720 217.325974,141.966278 217.578476,143.820831 
	C215.290039,146.658020 213.279114,148.972229 211.225739,151.653290 
	C211.061523,153.001099 210.939758,153.982071 210.676620,155.064301 
	C210.482162,155.267822 210.361435,155.396103 210.388855,155.467407 
	C210.467148,155.670990 210.605637,155.851395 210.732010,156.467773 
	C210.765289,158.607254 210.787003,160.319870 210.523987,162.193634 
	C207.716187,164.115692 205.166992,165.840897 202.683197,167.655609 
	C201.726151,168.354843 200.103348,169.398407 200.213882,170.037933 
	C200.433655,171.309250 201.421371,172.947556 202.519760,173.403717 
	C203.347412,173.747467 204.851746,172.506851 206.037018,171.934464 
	C208.017181,170.978149 209.983063,169.992264 211.954971,169.018829 
	C212.781815,171.190033 213.608658,173.361252 214.693268,176.174850 
	C214.980850,178.367310 215.010666,179.917374 214.720093,181.644806 
	C208.481949,187.768250 201.083115,189.098022 192.824570,188.459656 
	C190.711899,187.781555 188.889008,187.295197 186.860153,186.574203 
	C185.554169,185.766449 184.454147,185.193329 183.354111,184.620209 
z"/>
<path fill="#FDB381" opacity="1.000000" stroke="none" 
	d="
M175.840546,150.251587 
	C181.024261,150.485626 181.894302,154.377396 183.030289,158.450211 
	C182.055527,160.649200 180.816727,162.403076 180.045700,164.342880 
	C178.598251,167.984512 176.240402,168.827393 173.015915,166.863174 
	C168.775543,164.280121 164.664978,161.484268 160.492859,158.788803 
	C159.109970,157.895370 157.813858,156.600983 156.297256,156.230957 
	C151.692825,155.107559 151.917862,152.606461 153.591782,149.526718 
	C160.110336,153.290237 166.495270,156.976608 173.528351,161.037186 
	C174.374741,156.625900 174.961594,153.567291 175.840546,150.251587 
z"/>
<path fill="#C7DCF8" opacity="1.000000" stroke="none" 
	d="
M151.963715,183.576630 
	C151.184586,184.642548 150.412491,185.289261 149.330673,185.975250 
	C148.428436,185.872742 147.835907,185.730942 147.083832,185.819672 
	C146.144379,185.783737 145.364456,185.517288 144.296616,185.124985 
	C143.660248,182.292099 143.311813,179.585037 143.391571,176.445099 
	C146.849091,176.132233 150.373413,174.886322 151.968109,178.965088 
	C151.968994,180.362534 151.969879,181.759964 151.963715,183.576630 
z"/>
<path fill="#B0CEFB" opacity="1.000000" stroke="none" 
	d="
M151.988251,178.602478 
	C150.373413,174.886322 146.849091,176.132233 143.377930,176.030090 
	C144.052032,174.099304 145.167969,172.150620 146.313599,170.150101 
	C150.544342,172.041702 153.960098,173.393707 151.988251,178.602478 
z"/>
<path fill="#E9F2FA" opacity="1.000000" stroke="none" 
	d="
M215.040482,181.467438 
	C215.010666,179.917374 214.980850,178.367310 214.927322,176.426376 
	C226.541046,174.546814 238.172775,173.011703 249.817902,171.585892 
	C257.525085,170.642212 265.251495,169.855331 273.407288,168.995972 
	C273.894714,170.709320 273.944183,172.424957 273.933228,174.566177 
	C265.040009,174.994324 256.195801,175.265076 247.379120,174.889587 
	C242.771164,174.693314 241.841736,176.342026 241.906494,180.590546 
	C242.142670,196.086044 242.015686,211.587387 241.977676,227.086395 
	C241.973251,228.889175 241.670120,230.691223 240.870575,232.672791 
	C237.734421,231.111267 235.233139,229.370590 232.804596,227.120056 
	C232.916718,214.138275 233.010880,201.665939 232.917542,189.195023 
	C232.907303,187.826981 231.780106,185.272659 231.239136,185.290909 
	C226.623154,185.446457 221.577179,183.216248 217.367493,186.930969 
	C216.486130,184.900757 215.763306,183.184097 215.040482,181.467438 
z"/>
<path fill="#FDB381" opacity="1.000000" stroke="none" 
	d="
M265.856110,142.971283 
	C271.768982,145.790543 271.571808,151.835907 273.204163,157.362900 
	C268.012970,166.414154 266.555115,166.872284 257.412079,162.645432 
	C250.345322,159.378433 243.247665,156.172516 236.271866,152.720917 
	C235.251801,152.216187 234.016907,150.214050 234.299973,149.395081 
	C234.961914,147.479950 236.321518,145.693878 237.793808,144.261841 
	C238.102646,143.961441 240.708435,145.091843 241.241638,146.099548 
	C245.656082,154.442230 254.281036,151.592865 261.019012,153.643494 
	C261.462708,153.778519 262.749390,152.298279 263.099945,151.365021 
	C264.090576,148.727921 264.797974,145.984421 265.856110,142.971283 
z"/>
<path fill="#FDB381" opacity="1.000000" stroke="none" 
	d="
M211.268188,151.286438 
	C213.279114,148.972229 215.290039,146.658020 217.587341,144.181213 
	C220.305130,147.131699 222.740280,150.241837 225.166946,153.358582 
	C227.916336,156.889801 226.441406,159.564590 223.269241,161.646591 
	C219.670578,164.008514 215.929916,166.154083 212.102966,168.706268 
	C209.983063,169.992264 208.017181,170.978149 206.037018,171.934464 
	C204.851746,172.506851 203.347412,173.747467 202.519760,173.403717 
	C201.421371,172.947556 200.433655,171.309250 200.213882,170.037933 
	C200.103348,169.398407 201.726151,168.354843 202.683197,167.655609 
	C205.166992,165.840897 207.716187,164.115692 210.857758,162.082825 
	C213.355698,160.020248 215.235153,158.229599 217.815704,155.770966 
	C215.297684,154.046326 213.282944,152.666382 211.268188,151.286438 
z"/>
<path fill="#DBE8F9" opacity="1.000000" stroke="none" 
	d="
M416.227173,272.198700 
	C415.812103,272.750854 415.397034,273.303009 414.981964,273.855164 
	C415.035767,273.254425 415.089539,272.653656 415.516541,271.983215 
	C415.889740,271.913513 416.227173,272.198700 416.227173,272.198700 
z"/>
<path fill="#DBE8F9" opacity="1.000000" stroke="none" 
	d="
M415.717255,271.775513 
	C415.740356,271.099762 415.935913,270.562073 416.523682,269.980408 
	C417.052612,270.055878 417.189331,270.175293 417.326080,270.294739 
	C417.105682,270.810822 416.885254,271.326935 416.446014,272.020874 
	C416.227173,272.198700 415.889740,271.913513 415.717255,271.775513 
z"/>
<path fill="#DBE8F9" opacity="1.000000" stroke="none" 
	d="
M418.331726,268.308411 
	C418.290466,269.000854 418.020966,269.471252 417.538757,270.118195 
	C417.189331,270.175293 417.052612,270.055878 416.706329,269.755920 
	C416.738770,269.071014 416.980774,268.566681 417.424316,267.863800 
	C417.785065,267.805664 417.944275,267.946045 418.331726,268.308411 
z"/>
<path fill="#EC7E2D" opacity="1.000000" stroke="none" 
	d="
M272.861603,184.933380 
	C272.861603,184.933380 272.825439,184.435379 272.900085,183.943359 
	C273.040070,183.089020 273.105408,182.726700 273.401001,182.170776 
	C273.842468,181.636261 274.053680,181.295319 274.264893,180.954361 
	C276.298523,181.597488 278.332123,182.240601 280.709167,183.003937 
	C283.362885,190.785019 285.673126,198.445908 287.976959,206.529465 
	C287.970520,206.952133 287.913177,206.929764 287.615051,206.780212 
	C286.754730,205.828201 286.174469,205.037689 285.633179,204.221359 
	C281.371796,197.794815 277.117859,191.363342 272.861603,184.933380 
z"/>
<path fill="#E9F2FA" opacity="1.000000" stroke="none" 
	d="
M308.070190,146.438385 
	C318.896179,153.542542 318.671814,150.917709 311.646729,162.096695 
	C311.037109,163.066742 310.274963,163.940948 309.247986,164.962509 
	C308.618774,159.013123 308.325287,152.960922 308.070190,146.438385 
z"/>
<path fill="#F2F6FB" opacity="1.000000" stroke="none" 
	d="
M274.245148,180.619781 
	C274.053680,181.295319 273.842468,181.636261 273.346954,181.827637 
	C273.036469,181.448288 273.010284,181.218506 272.984070,180.988708 
	C273.181915,180.416290 273.379761,179.843872 273.846558,179.114258 
	C274.152191,179.399796 274.188782,179.842499 274.245148,180.619781 
z"/>
<path fill="#EAF3FA" opacity="1.000000" stroke="none" 
	d="
M294.077515,218.174454 
	C293.785004,224.397583 293.496796,230.319641 292.943268,236.216797 
	C292.772156,238.039642 291.878632,239.794647 290.848511,241.661438 
	C286.826935,235.237686 283.407288,228.654099 279.654297,222.266373 
	C278.083832,219.593369 277.764435,217.500549 280.065796,215.196457 
	C282.749939,212.509140 285.303162,209.691086 287.913177,206.929779 
	C287.913177,206.929764 287.970520,206.952133 287.965790,206.921600 
	C289.967255,210.548630 291.973419,214.206223 294.077515,218.174454 
z"/>
<path fill="#C8DBF5" opacity="1.000000" stroke="none" 
	d="
M127.732712,263.160645 
	C127.964142,263.214996 127.643356,263.546173 127.643356,263.546173 
	C127.643356,263.546173 127.216125,263.477386 127.127151,263.345703 
	C127.038185,263.213989 127.501274,263.106262 127.732712,263.160645 
z"/>
<path fill="#C8DBF5" opacity="1.000000" stroke="none" 
	d="
M131.731674,263.171753 
	C131.961716,263.228638 131.638779,263.553558 131.638779,263.553558 
	C131.638779,263.553558 131.214478,263.480347 131.126724,263.348938 
	C131.038971,263.217529 131.501633,263.114868 131.731674,263.171753 
z"/>
<path fill="#2D5197" opacity="1.000000" stroke="none" 
	d="
M232.731857,227.629913 
	C235.233139,229.370590 237.734421,231.111267 240.549561,232.951965 
	C242.354034,234.313812 243.844650,235.575668 245.746735,237.303894 
	C246.032639,239.250183 245.907089,240.730103 245.781555,242.210007 
	C244.805771,242.045685 243.830002,241.881363 242.201736,241.473419 
	C238.699829,240.490234 235.850403,239.750671 233.000992,239.011108 
	C225.534760,236.957352 218.032104,235.023041 210.627747,232.766266 
	C208.763489,232.198074 207.213989,230.597244 205.221893,228.866791 
	C204.070023,226.025253 203.216080,223.787918 202.362137,221.550568 
	C200.813354,225.332443 199.817673,229.126724 199.932220,232.887161 
	C200.075485,237.590195 201.131439,242.265411 201.793411,246.952637 
	C200.414978,255.048187 199.036530,263.143738 197.524048,271.659851 
	C196.053375,272.023132 194.716736,271.965881 193.061157,271.767029 
	C192.063934,263.292938 191.385635,254.960464 190.502991,246.294342 
	C188.130341,234.238785 185.481018,222.578964 183.957535,210.773865 
	C182.885345,202.465668 183.343933,193.959900 183.236572,185.081284 
	C184.454147,185.193329 185.554169,185.766449 186.964752,186.925522 
	C191.137741,196.537674 195.000183,205.563858 198.862610,214.590057 
	C199.246277,214.452789 199.629944,214.315536 200.013611,214.178284 
	C197.713852,205.669312 195.414093,197.160355 193.114334,188.651382 
	C201.083115,189.098022 208.481949,187.768250 214.720093,181.644806 
	C215.763306,183.184097 216.486130,184.900757 217.397263,187.382416 
	C217.659622,197.627609 217.704285,207.108215 217.826752,216.587799 
	C217.860809,219.222443 217.686386,221.842911 221.218033,222.949310 
	C225.158051,224.183640 228.902359,226.042740 232.731857,227.629913 
M200.520538,216.586441 
	C200.463654,216.820236 200.406769,217.054016 200.349869,217.287796 
	C200.491226,217.138138 200.632568,216.988464 200.520538,216.586441 
M201.479691,219.596146 
	C201.479691,219.596146 201.400146,219.465897 201.479691,219.596146 
z"/>
<path fill="#F99849" opacity="1.000000" stroke="none" 
	d="
M287.615051,206.780228 
	C285.303162,209.691086 282.749939,212.509140 280.065796,215.196457 
	C277.764435,217.500549 278.083832,219.593369 279.654297,222.266373 
	C283.407288,228.654099 286.826935,235.237686 290.628967,242.005692 
	C292.103668,245.641037 293.330536,249.012894 294.655090,253.037689 
	C292.998932,254.765945 291.245148,255.841263 289.491333,256.916565 
	C287.455719,254.743134 285.420135,252.569717 282.993652,249.889038 
	C279.066650,245.593109 275.530548,241.804443 271.994415,238.015778 
	C269.147430,234.370941 265.811371,230.993607 263.621460,226.989426 
	C262.102386,224.211777 260.928955,220.221954 261.734436,217.377930 
	C264.792877,206.579178 268.719513,196.026291 272.591553,185.157425 
	C277.117859,191.363342 281.371796,197.794815 285.633179,204.221359 
	C286.174469,205.037689 286.754730,205.828201 287.615051,206.780228 
z"/>
<path fill="#293C65" opacity="1.000000" stroke="none" 
	d="
M289.358643,257.315460 
	C291.245148,255.841263 292.998932,254.765945 294.828186,253.347382 
	C297.661163,254.725433 300.418701,256.446747 303.167755,258.162781 
	C297.485626,263.991821 292.013397,269.605591 286.541138,275.219360 
	C286.117828,275.141968 285.694519,275.064606 285.271210,274.987213 
	C286.589447,269.229584 287.907715,263.471985 289.358643,257.315460 
z"/>
<path fill="#E9F2FA" opacity="1.000000" stroke="none" 
	d="
M232.998993,239.471893 
	C235.850403,239.750671 238.699829,240.490234 241.831329,241.442291 
	C242.074127,243.133347 241.956421,244.614807 242.010651,246.089935 
	C242.155884,250.039902 239.498199,249.894211 236.706940,250.052856 
	C233.437561,250.238693 232.789352,248.596619 232.973465,245.848846 
	C233.105042,243.885071 232.997711,241.905289 232.998993,239.471893 
z"/>
<path fill="#F99849" opacity="1.000000" stroke="none" 
	d="
M245.976120,242.482193 
	C245.907089,240.730103 246.032639,239.250183 246.038803,237.451035 
	C247.948166,236.540833 249.976898,235.949860 252.545486,235.201630 
	C253.143723,240.632843 253.701950,245.700714 254.260162,250.768570 
	C253.875641,250.921234 253.491135,251.073883 253.106613,251.226547 
	C250.794647,248.402496 248.482666,245.578430 245.976120,242.482193 
z"/>
<path fill="#E9F2FA" opacity="1.000000" stroke="none" 
	d="
M271.995605,238.477631 
	C275.530548,241.804443 279.066650,245.593109 282.727051,249.679504 
	C271.998962,250.056320 271.998962,250.056320 271.995605,238.477631 
z"/>
<path fill="#DBE8F9" opacity="1.000000" stroke="none" 
	d="
M201.991898,246.906769 
	C201.131439,242.265411 200.075485,237.590195 199.932220,232.887161 
	C199.817673,229.126724 200.813354,225.332443 202.362137,221.550568 
	C203.216080,223.787918 204.070023,226.025253 204.961334,228.631561 
	C204.334152,234.367264 203.669617,239.734039 203.010986,245.570068 
	C202.741379,246.313187 202.465897,246.587051 201.991898,246.906769 
z"/>
<path fill="#E9F2FA" opacity="1.000000" stroke="none" 
	d="
M272.744141,181.158615 
	C273.010284,181.218506 273.036469,181.448288 273.116699,182.021210 
	C273.105408,182.726700 273.040070,183.089020 272.847229,183.699371 
	C272.647888,183.074432 272.576050,182.201477 272.744141,181.158615 
z"/>
<path fill="#293C65" opacity="1.000000" stroke="none" 
	d="
M192.824570,188.459656 
	C195.414093,197.160355 197.713852,205.669312 200.013611,214.178284 
	C199.629944,214.315536 199.246277,214.452789 198.862610,214.590057 
	C195.000183,205.563858 191.137741,196.537674 187.170715,187.160156 
	C188.889008,187.295197 190.711899,187.781555 192.824570,188.459656 
z"/>
<path fill="#F2F6FB" opacity="1.000000" stroke="none" 
	d="
M211.225739,151.653290 
	C213.282944,152.666382 215.297684,154.046326 217.815704,155.770966 
	C215.235153,158.229599 213.355698,160.020248 211.142487,161.921692 
	C210.787003,160.319870 210.765289,158.607254 210.822617,156.204315 
	C210.873779,155.330353 210.845886,155.146698 210.817993,154.963043 
	C210.939758,153.982071 211.061523,153.001099 211.225739,151.653290 
z"/>
<path fill="#FDB381" opacity="1.000000" stroke="none" 
	d="
M210.676620,155.064301 
	C210.845886,155.146698 210.873779,155.330353 210.811066,155.777466 
	C210.605637,155.851395 210.467148,155.670990 210.388855,155.467407 
	C210.361435,155.396103 210.482162,155.267822 210.676620,155.064301 
z"/>
<path fill="#D9E6F9" opacity="1.000000" stroke="none" 
	d="
M232.804596,227.120056 
	C228.902359,226.042740 225.158051,224.183640 221.218033,222.949310 
	C217.686386,221.842911 217.860809,219.222443 217.826752,216.587799 
	C217.704285,207.108215 217.659622,197.627609 217.555801,187.695953 
	C221.577179,183.216248 226.623154,185.446457 231.239136,185.290909 
	C231.780106,185.272659 232.907303,187.826981 232.917542,189.195023 
	C233.010880,201.665939 232.916718,214.138275 232.804596,227.120056 
z"/>
<path fill="#293C65" opacity="1.000000" stroke="none" 
	d="
M200.647232,216.712616 
	C200.632568,216.988464 200.491226,217.138138 200.349884,217.287811 
	C200.406769,217.054016 200.463654,216.820236 200.647232,216.712616 
z"/>
<path fill="#293C65" opacity="1.000000" stroke="none" 
	d="
M201.439911,219.531021 
	C201.400146,219.465897 201.479691,219.596146 201.439911,219.531021 
z"/>
</svg>